<svg xmlns="http://www.w3.org/2000/svg" width="5in" height="5in" viewBox="0 0 1254 1254">
<g transform="translate(0.000000,1254.000000) scale(0.100000,-0.100000)">
<g fill="#adb58d"><path d="M6242 11507 c-42 -59 -115 -135 -182 -188 -30 -24 -60 -48 -66 -54
-7 -5 -39 -30 -74 -54 -88 -64 -149 -142 -120 -153 12 -4 26 -6 30 -3 5 3 10
2 12 -2 1 -5 33 -23 70 -42 136 -67 247 -171 305 -284 20 -40 27 -46 39 -37
10 9 18 10 27 1 11 -8 20 1 42 44 63 125 213 248 377 311 61 23 67 28 56 42
-33 42 -90 94 -163 149 -44 34 -89 69 -100 79 -11 11 -46 41 -77 67 -32 27
-76 75 -99 108 -50 70 -39 68 -77 16z"/><path d="M5240 10805 c0 -41 -33 -134 -68 -190 -59 -96 -98 -151 -114 -166
-10 -9 -18 -20 -18 -23 0 -4 -6 -13 -12 -21 -7 -7 -40 -48 -73 -90 -33 -43
-76 -97 -96 -121 -43 -53 -102 -161 -95 -173 22 -35 82 -46 256 -47 265 -2
430 -41 475 -114 10 -16 21 -12 35 15 9 16 19 23 30 20 11 -4 16 2 18 23 4 52
70 169 130 227 52 51 191 155 207 155 29 0 185 137 185 162 0 32 -140 98 -250
118 -274 51 -432 114 -555 223 -53 45 -55 46 -55 2z"/><path d="M7245 10797 c-72 -69 -233 -142 -390 -177 -49 -11 -119 -27 -155 -35
-106 -23 -270 -93 -270 -115 0 -30 75 -97 185 -167 171 -108 244 -174 299
-268 27 -45 58 -140 49 -149 -10 -10 7 -7 28 5 17 9 21 7 26 -10 6 -23 18 -27
28 -11 37 60 210 100 430 100 241 0 305 18 283 82 -13 40 -106 182 -145 223
-155 163 -297 393 -321 525 -7 35 -7 35 -47 -3z"/><path d="M4018 10742 c5 -83 -17 -198 -63 -329 -61 -172 -60 -182 27 -167 195
35 394 -3 523 -100 20 -15 20 -13 20 132 0 175 15 230 105 377 11 17 16 36 12
42 -9 14 -140 33 -230 33 -104 0 -251 25 -323 54 -36 14 -68 26 -70 26 -3 0
-3 -31 -1 -68z"/><path d="M8411 10780 c-79 -31 -200 -50 -321 -50 -41 -1 -105 -7 -142 -14 -49
-9 -71 -10 -79 -2 -7 6 0 -4 15 -23 97 -121 161 -397 123 -536 -8 -28 -8 -29
10 -13 103 90 331 141 490 108 110 -22 102 -27 87 48 -7 37 -24 103 -39 147
-38 114 -55 206 -55 291 0 41 -3 74 -7 73 -5 -1 -41 -14 -82 -29z"/><path d="M6235 10169 c-49 -83 -176 -201 -275 -255 -39 -21 -110 -75 -154
-117 -40 -37 -26 -49 89 -77 50 -12 96 -27 103 -32 7 -7 12 -7 12 -1 0 6 25
27 56 48 62 40 184 161 184 180 0 38 27 32 50 -11 33 -63 194 -195 215 -176 5
4 5 1 1 -6 -4 -7 -1 -15 8 -18 9 -3 14 -10 11 -14 -3 -5 7 -3 22 5 16 7 57 19
93 25 103 18 126 34 101 69 -17 24 -161 131 -176 131 -3 0 -20 10 -38 23 -118
82 -216 179 -243 240 -22 47 -23 47 -59 -14z"/><path d="M4405 9923 c-63 -9 -144 -33 -270 -78 -194 -70 -362 -95 -439 -65
-30 11 -30 14 -11 -70 22 -101 9 -328 -23 -412 -21 -52 -60 -264 -55 -295 10
-65 125 -36 295 73 125 80 290 117 411 91 32 -7 37 -6 37 11 0 10 3 22 7 26 4
4 6 44 4 89 -3 108 10 158 80 302 73 150 89 196 89 252 0 81 -17 91 -125 76z"/><path d="M8009 9908 c-30 -55 -17 -115 58 -273 86 -181 96 -213 97 -332 0 -51
5 -93 9 -93 5 0 7 -11 5 -25 -5 -22 -3 -24 21 -17 106 29 265 -6 416 -92 299
-171 359 -131 266 179 -54 178 -70 387 -37 474 22 59 21 62 -15 49 -83 -29
-269 2 -489 81 -203 73 -309 89 -331 49z"/><path d="M4785 9699 c9 -63 -32 -195 -111 -358 -71 -148 -71 -150 -11 -133 23
7 69 20 103 29 58 16 62 20 88 69 28 54 55 148 56 197 0 32 1 32 69 6 103 -39
245 -36 270 5 12 18 41 52 65 74 59 55 25 69 -189 76 -169 6 -226 18 -338 74
-5 2 -6 -15 -2 -39z"/><path d="M7681 9710 c-63 -33 -163 -50 -295 -50 -51 0 -106 -4 -122 -9 -16 -5
-42 -12 -57 -15 -28 -7 -28 -7 34 -76 34 -38 66 -67 71 -64 4 3 5 -1 2 -9 -9
-23 181 2 255 34 58 25 61 25 61 -18 1 -98 64 -249 108 -259 15 -3 54 -14 86
-25 109 -35 112 -24 36 128 -85 171 -101 217 -107 311 -3 45 -9 82 -12 81 -3
0 -30 -14 -60 -29z"/><path d="M5640 9545 c0 -43 -58 -126 -154 -220 -100 -98 -156 -164 -156 -183
0 -6 -4 -12 -10 -14 -6 -2 -6 -9 0 -18 7 -12 36 -15 142 -16 159 -2 197 -11
283 -69 66 -44 66 -44 76 -17 44 119 82 163 202 238 130 81 129 80 89 113 -19
16 -54 32 -85 38 -168 35 -278 77 -349 134 -29 23 -38 26 -38 14z"/><path d="M6883 9547 c-4 -7 -24 -22 -43 -33 -19 -10 -37 -22 -40 -25 -12 -15
-71 -37 -140 -54 -41 -10 -84 -21 -95 -26 -11 -4 -40 -13 -65 -20 -121 -30
-125 -59 -21 -122 133 -81 231 -186 231 -247 0 -34 27 -34 70 0 73 58 128 72
282 74 202 2 204 12 22 201 -125 130 -174 196 -174 231 0 28 -16 40 -27 21z"/><path d="M3195 9519 c-33 -11 -74 -26 -90 -34 -124 -57 -230 -89 -332 -100
-35 -4 -63 -8 -63 -10 0 -2 18 -40 40 -84 40 -81 43 -91 76 -326 8 -60 20
-125 25 -143 9 -28 8 -37 -7 -55 -10 -12 -1 -5 20 15 112 110 296 183 444 177
80 -4 80 -4 53 31 -101 131 -150 350 -113 508 5 23 9 42 8 41 0 0 -28 -9 -61
-20z"/><path d="M9273 9486 c31 -169 -39 -459 -124 -512 -23 -14 -5 -20 45 -16 119
10 271 -41 403 -134 34 -24 64 -44 66 -44 8 0 17 44 42 215 27 184 49 263 95
338 29 47 29 47 -13 47 -82 0 -318 70 -392 116 -11 7 -45 19 -76 27 -56 14
-56 14 -46 -37z"/><path d="M6225 9110 c-21 -21 -52 -46 -69 -55 -208 -107 -246 -148 -151 -160
88 -11 189 -66 229 -126 33 -50 33 -50 49 -26 47 72 154 139 244 153 81 12 55
45 -103 135 -53 30 -109 69 -125 87 -35 39 -27 40 -74 -8z"/><path d="M5028 9030 c-27 -5 -76 -18 -110 -29 -88 -29 -214 -53 -256 -49 -35
3 -35 3 -33 -73 2 -53 -5 -105 -23 -175 -64 -256 -46 -294 99 -215 95 52 181
74 268 68 45 -3 67 -1 68 7 1 6 0 45 -1 87 -2 91 9 137 61 243 44 90 48 120
20 136 -22 11 -25 11 -93 0z"/><path d="M7411 9033 c-34 -7 -25 -66 30 -178 42 -86 44 -94 45 -185 1 -52 2
-100 3 -106 1 -7 33 -11 89 -11 95 -1 168 -22 239 -70 21 -14 57 -28 81 -31
42 -5 42 -5 38 104 -2 63 -11 134 -22 169 -11 38 -17 92 -17 146 1 87 1 87
-36 82 -48 -6 -215 27 -308 61 -49 18 -108 26 -142 19z"/><path d="M4303 8940 c-18 -4 -61 -26 -95 -48 -123 -80 -289 -142 -378 -142
-47 0 -47 1 -16 -53 34 -61 55 -157 66 -311 5 -75 14 -144 19 -155 6 -10 7
-21 4 -25 -18 -18 16 -2 41 19 103 88 136 127 136 157 0 52 -31 191 -50 225
-20 35 -17 43 16 43 27 0 188 45 231 65 39 19 41 19 46 -2 3 -10 5 -2 6 17 1
19 8 62 16 95 18 76 19 125 3 124 -7 -1 -28 -5 -45 -9z"/><path d="M8169 8929 c-9 -5 -9 -20 4 -66 8 -32 18 -74 21 -94 6 -32 12 -39 54
-57 61 -26 191 -62 223 -62 37 0 39 -7 19 -53 -11 -24 -23 -88 -29 -150 -5
-60 -12 -111 -14 -114 -3 -2 29 -36 71 -75 l76 -70 12 60 c7 34 16 98 19 144
12 147 72 338 106 338 6 0 7 5 4 10 -3 6 -28 10 -54 10 -45 0 -112 17 -176 45
-16 7 -48 20 -70 30 -22 9 -71 34 -108 57 -69 41 -135 61 -158 47z"/><path d="M5320 8843 c-7 -32 -33 -98 -58 -148 -45 -90 -58 -135 -41 -135 5 0
42 9 81 20 91 25 161 25 217 0 24 -11 45 -20 47 -20 2 0 4 19 4 43 0 57 38
133 94 187 51 50 53 55 31 76 -11 12 -43 15 -152 13 -77 0 -153 4 -173 10 -19
6 -35 11 -36 11 0 0 -7 -26 -14 -57z"/><path d="M7155 8890 c-11 -5 -75 -9 -141 -9 -211 -2 -225 -12 -140 -101 64
-67 85 -108 88 -174 2 -37 6 -45 18 -40 92 39 148 42 248 14 39 -11 76 -20 82
-20 17 0 0 51 -34 105 -39 60 -76 160 -76 204 0 32 -9 36 -45 21z"/><path d="M3431 8728 c-57 -30 -134 -98 -198 -174 -107 -126 -302 -254 -387
-254 -35 0 -35 0 33 -68 71 -71 117 -161 191 -372 58 -164 97 -250 114 -250
21 0 100 86 161 175 79 116 108 148 182 201 58 43 86 55 145 68 45 10 45 41
-1 91 -82 89 -113 187 -126 403 -12 175 -39 219 -114 180z"/><path d="M9008 8728 c-26 -40 -37 -90 -48 -213 -16 -190 -50 -286 -131 -379
-48 -54 -45 -86 7 -86 85 0 223 -104 315 -237 72 -105 77 -112 128 -160 50
-49 59 -51 84 -23 18 21 80 177 115 290 42 134 103 241 183 321 46 46 46 46
-4 58 -64 14 -181 74 -228 115 -20 17 -44 38 -55 47 -10 9 -63 64 -118 123
-134 145 -216 193 -248 144z"/><path d="M6181 8369 c-76 -77 -61 -162 36 -216 80 -45 188 24 188 118 0 58
-28 113 -53 104 -7 -3 -10 -1 -7 5 9 15 -30 30 -79 30 -41 0 -51 -5 -85 -41z"/><path d="M4995 8387 c-16 -5 -37 -15 -45 -22 -35 -29 -125 -67 -173 -71 -71
-8 -82 -12 -69 -27 18 -22 33 -134 26 -201 -13 -125 13 -146 86 -70 56 57 127
94 196 101 48 5 52 8 43 24 -21 40 -29 124 -18 179 20 100 16 108 -46 87z"/><path d="M7474 8357 c18 -120 17 -182 -2 -218 -19 -37 -19 -37 23 -42 67 -10
132 -43 191 -99 76 -72 90 -63 86 55 -2 76 10 159 34 222 5 12 -1 15 -27 15
-59 1 -122 20 -181 55 -101 60 -131 63 -124 12z"/><path d="M5778 8284 c-68 -36 -92 -108 -59 -178 47 -96 178 -99 231 -5 62 111
-60 241 -172 183z"/><path d="M6639 8278 c-37 -21 -79 -84 -79 -118 0 -24 21 -70 32 -70 4 0 8 -7
8 -16 0 -10 5 -14 16 -10 8 3 13 2 10 -3 -3 -5 8 -14 26 -20 172 -60 259 174
91 244 -46 20 -61 19 -104 -7z"/><path d="M4415 8253 c-16 -9 -75 -57 -131 -108 -77 -70 -116 -98 -163 -116
-55 -22 -76 -42 -52 -51 31 -12 103 -185 116 -280 20 -135 68 -147 145 -35 74
107 169 181 246 193 58 8 62 19 27 57 -62 67 -93 156 -93 269 0 92 -23 109
-95 71z"/><path d="M8012 8258 c-5 -7 -12 -53 -15 -103 -6 -119 -28 -185 -77 -236 -40
-42 -43 -59 -11 -59 76 0 182 -87 281 -229 68 -98 88 -80 155 134 38 120 73
193 101 212 27 17 23 33 -9 33 -50 0 -130 51 -206 129 -100 104 -191 153 -219
119z"/><path d="M5473 7996 c-123 -32 -126 -213 -4 -246 87 -23 171 37 171 123 0 97
-70 149 -167 123z"/><path d="M6973 7999 c-96 -28 -110 -190 -20 -232 74 -35 178 -21 162 22 -3 8
-3 12 1 8 14 -14 37 36 36 79 -1 95 -83 152 -179 123z"/><path d="M9911 7895 c-4 -98 -192 -339 -308 -395 -64 -30 -64 -30 -4 -58 27
-12 69 -40 94 -62 25 -22 50 -40 56 -40 6 0 11 -5 11 -11 0 -5 13 -27 29 -47
40 -50 111 -191 112 -222 0 -23 1 -24 9 -4 4 11 19 27 32 36 13 9 51 49 83 89
102 125 108 132 165 188 30 29 77 66 103 81 48 27 48 27 -5 57 -63 36 -161
138 -266 275 -23 30 -54 64 -68 74 -14 11 -30 28 -34 39 -9 20 -9 20 -9 0z"/><path d="M2544 7857 c-22 -23 -60 -69 -85 -102 -89 -121 -181 -214 -242 -244
-40 -20 -40 -20 -10 -38 88 -55 170 -140 288 -300 89 -120 93 -121 148 -10 52
104 183 257 221 257 8 0 16 4 18 9 2 5 18 18 36 29 33 20 33 20 -28 57 -121
74 -229 214 -283 368 -9 25 -17 21 -63 -26z"/><path d="M3764 7826 c-23 -25 -67 -82 -97 -128 -66 -100 -149 -181 -214 -209
-44 -19 -46 -22 -25 -30 40 -15 134 -92 168 -139 19 -25 37 -50 41 -55 5 -6
30 -43 58 -84 98 -144 119 -144 155 -1 6 25 18 55 26 67 12 20 12 22 -1 17 -8
-4 -15 -2 -15 3 0 5 -8 18 -17 29 -10 10 -31 39 -47 62 -29 42 -103 102 -125
102 -20 0 -11 20 12 30 28 11 62 42 108 100 64 78 78 92 88 86 6 -4 4 9 -4 27
-8 19 -22 64 -31 101 -19 78 -24 80 -80 22z"/><path d="M8680 7858 c0 -2 -13 -40 -28 -85 -16 -46 -25 -83 -20 -83 4 0 8 -7
8 -15 0 -8 4 -15 9 -15 5 0 12 -8 15 -17 7 -21 122 -142 151 -160 20 -12 20
-12 0 -28 -50 -38 -90 -85 -126 -147 -22 -37 -43 -69 -48 -72 -11 -7 41 -158
56 -163 15 -5 90 69 133 132 19 28 37 52 42 53 4 2 8 9 8 15 0 21 134 142 184
166 49 24 49 24 -2 50 -78 40 -158 116 -222 211 -65 96 -159 189 -160 158z"/><path d="M7803 7738 c-6 -7 -15 -35 -22 -62 -21 -87 -105 -206 -144 -206 -6 0
14 -22 44 -49 58 -51 100 -128 114 -203 12 -67 41 -44 143 109 34 50 75 100
92 109 37 22 37 29 3 51 -41 26 -47 33 -102 119 -83 132 -108 157 -128 132z"/><path d="M4659 7727 c-8 -7 -35 -41 -59 -77 -24 -36 -47 -66 -52 -68 -4 -2 -8
-9 -8 -16 0 -16 -69 -86 -86 -86 -8 0 -14 -4 -14 -8 0 -10 47 -52 58 -52 7 0
31 -36 99 -144 64 -105 96 -110 119 -18 23 88 91 180 146 198 16 5 11 11 -26
36 -56 37 -78 72 -107 171 -23 79 -35 91 -70 64z"/><path d="M5335 7581 c-42 -19 -66 -57 -72 -116 -4 -40 -3 -56 5 -52 6 5 8 0 5
-11 -20 -78 170 -104 231 -31 89 105 -41 266 -169 210z"/><path d="M7070 7580 c-68 -27 -97 -131 -54 -196 61 -94 196 -81 240 23 20 46
19 75 -1 49 -14 -19 -15 -19 -15 5 0 14 5 30 11 36 41 41 -111 110 -181 83z"/><path d="M4235 7342 c-30 -20 -60 -83 -82 -169 -25 -98 -73 -212 -98 -233 -22
-18 -19 -23 23 -43 37 -17 73 -38 82 -47 3 -3 22 -17 42 -33 20 -15 58 -50 85
-78 89 -95 166 -134 190 -97 4 7 10 60 14 118 8 138 21 179 74 244 44 54 44
54 7 61 -82 15 -176 95 -255 215 -41 63 -61 78 -82 62z"/><path d="M8218 7333 c-8 -10 -36 -50 -61 -89 -26 -39 -54 -77 -64 -86 -48 -42
-125 -87 -157 -93 -43 -9 -44 -11 -10 -50 50 -56 75 -127 81 -227 12 -203 52
-209 227 -34 79 79 113 105 168 130 69 31 69 31 43 61 -38 45 -61 99 -90 210
-26 100 -40 130 -78 173 -25 27 -39 28 -59 5z"/><path d="M3144 7311 c-27 -34 -67 -120 -92 -201 -11 -36 -32 -102 -47 -148
-40 -126 -98 -232 -155 -286 -59 -56 -60 -56 -15 -56 98 0 252 -103 424 -284
215 -227 250 -216 271 80 15 210 41 289 122 374 61 65 63 76 11 90 -118 29
-205 102 -327 274 -85 118 -118 155 -161 178 -5 3 -19 -6 -31 -21z"/><path d="M9314 7309 c-23 -15 -79 -79 -125 -141 -129 -173 -226 -255 -342
-287 -31 -9 -45 -17 -38 -24 5 -5 7 -15 5 -22 -3 -7 8 -23 23 -36 80 -68 112
-162 124 -359 17 -309 73 -346 240 -159 139 155 251 259 278 259 6 0 11 4 11
9 0 13 121 65 168 71 42 5 42 5 -5 56 -66 71 -128 191 -158 310 -36 137 -95
299 -120 328 -20 24 -20 24 -61 -5z"/><path d="M4724 6963 c-4 -10 -8 -79 -8 -154 -1 -99 -5 -140 -15 -152 -15 -19
-12 -21 54 -32 22 -4 72 -24 112 -45 66 -37 148 -64 164 -55 3 3 0 28 -8 57
-13 50 -15 200 -2 192 5 -3 29 39 29 50 0 2 -27 6 -59 9 -65 5 -135 40 -173
86 -47 54 -82 71 -94 44z"/><path d="M7714 6958 c-16 -13 -40 -36 -54 -52 -31 -37 -114 -76 -164 -76 -32
0 -37 -3 -31 -17 28 -71 35 -177 15 -238 -23 -68 19 -78 107 -24 87 52 125 69
173 75 42 5 50 10 45 23 -17 42 -27 132 -22 191 11 123 -12 162 -69 118z"/><path d="M5751 6853 c-19 -10 -39 -29 -45 -45 -6 -15 -14 -28 -18 -28 -16 0
-7 -76 12 -107 75 -124 256 -72 254 73 -2 98 -107 154 -203 107z"/><path d="M6690 6861 c24 -7 24 -7 -10 -21 -19 -7 -43 -20 -52 -28 -10 -8 -18
-12 -18 -7 0 4 8 14 17 21 10 7 14 16 10 21 -5 4 -20 -5 -33 -20 -27 -31 -31
-49 -10 -41 18 7 27 -94 9 -111 -14 -15 29 -65 55 -64 14 0 14 2 2 6 -37 14
-53 42 -34 61 17 16 18 16 11 0 -3 -10 -4 -25 -1 -33 7 -17 44 -21 44 -5 0 16
42 12 61 -6 20 -18 61 1 73 33 5 12 3 13 -7 5 -10 -8 -13 -6 -13 9 0 10 4 19
9 19 6 0 7 23 3 53 -5 36 -3 47 4 37 5 -8 10 -24 11 -35 0 -12 3 -15 6 -7 7
19 -17 73 -30 65 -6 -4 -8 0 -5 9 8 19 -31 45 -42 28 -4 -7 -13 -9 -20 -5 -9
6 -9 9 1 16 9 6 0 8 -26 8 -33 -1 -35 -2 -15 -8z"/><path d="M6224 6745 c-18 -13 -17 -14 11 -9 23 3 26 2 15 -6 -8 -5 -27 -7 -41
-4 -77 16 -103 -150 -33 -205 57 -45 152 -36 198 20 25 30 36 66 16 54 -5 -3
-10 -1 -10 4 0 6 5 11 10 11 6 0 10 17 10 37 0 57 -71 113 -144 113 -7 0 -21
-7 -32 -15z"/><path d="M8537 6657 c-42 -40 -78 -72 -80 -71 -15 15 16 -225 33 -258 23 -44
16 -60 -21 -51 -34 9 -149 -33 -237 -88 -14 -9 -21 -21 -18 -31 2 -10 1 -18
-3 -18 -9 0 -43 -151 -36 -158 10 -11 95 22 221 85 124 62 219 92 292 93 38 0
38 -5 7 63 -44 100 -55 165 -55 318 0 219 3 215 -103 116z"/><path d="M3866 6698 c-3 -13 -9 -93 -12 -178 -6 -182 -16 -237 -55 -307 -16
-29 -26 -53 -22 -54 5 0 17 -2 28 -4 11 -1 45 -6 75 -9 81 -9 163 -43 317
-133 57 -33 160 -45 149 -17 -4 10 -14 51 -23 89 -8 39 -23 77 -32 86 -42 43
-199 109 -257 109 -31 0 -35 3 -29 18 27 62 36 105 43 189 6 69 5 96 -4 101
-7 4 -42 35 -78 70 -71 67 -90 74 -100 40z"/><path d="M4538 6433 c-3 -62 5 -131 23 -178 34 -93 51 -179 47 -235 -4 -55 -4
-55 77 -56 65 0 100 -8 188 -38 231 -79 284 -57 211 92 -63 131 -80 204 -63
267 6 20 7 44 3 53 -4 10 -7 20 -6 24 1 4 -33 5 -76 1 -91 -7 -157 9 -264 63
-87 44 -137 46 -140 7z"/><path d="M7818 6425 c-113 -58 -282 -87 -316 -53 -14 14 -16 4 -12 -99 2 -84
-18 -163 -64 -248 -57 -103 -56 -157 1 -148 58 9 129 25 148 33 23 10 96 32
168 50 26 7 73 10 105 8 57 -6 57 -6 54 46 -2 29 4 86 13 127 9 41 23 102 31
135 7 34 15 88 16 120 4 77 -36 85 -144 29z"/><path d="M6963 6304 c-2 -65 -37 -133 -98 -194 -76 -75 -63 -83 128 -79 73 2
146 0 163 -4 30 -8 32 -7 38 29 8 38 33 95 91 204 53 99 49 102 -85 71 -68
-15 -134 -13 -187 7 -48 18 -48 18 -50 -34z"/><path d="M5200 6312 c4 -21 30 -79 58 -128 27 -49 53 -108 57 -131 7 -48 8
-48 37 -32 13 7 78 11 175 10 184 -2 188 1 109 84 -59 61 -96 138 -96 199 0
34 0 34 -47 20 -58 -18 -120 -17 -203 1 -98 22 -98 21 -90 -23z"/><path d="M6241 6146 c-46 -74 -133 -130 -229 -147 -31 -6 -60 -14 -64 -18 -16
-15 74 -92 149 -127 74 -34 108 -60 146 -114 17 -25 17 -25 34 -2 44 62 80 88
174 125 37 15 74 43 117 87 29 30 11 50 -45 50 -80 0 -186 62 -233 137 -28 44
-28 44 -49 9z"/><path d="M2831 6095 c-6 -24 -16 -91 -22 -147 -20 -201 -36 -268 -81 -343 -26
-43 -24 -45 45 -45 34 0 91 -8 127 -19 67 -19 81 -25 234 -105 50 -25 93 -46
96 -46 3 0 2 33 -2 73 -18 159 31 342 121 454 l50 61 -78 -5 c-135 -10 -261
29 -401 122 -82 55 -75 55 -89 0z"/><path d="M9605 6108 c-115 -88 -294 -145 -430 -136 -62 4 -62 4 -19 -52 93
-120 145 -371 106 -512 -11 -40 8 -36 120 27 133 74 290 125 386 125 32 0 32
0 9 48 -12 26 -25 49 -29 52 -12 9 -37 129 -43 205 -13 156 -36 276 -54 274
-3 0 -24 -14 -46 -31z"/><path d="M3588 5929 c-22 -12 -18 -132 8 -224 75 -274 76 -280 81 -406 5 -113
3 -130 -16 -169 -23 -48 -22 -56 6 -42 81 42 308 12 513 -68 137 -53 288 -82
315 -60 41 34 19 152 -51 269 -19 31 -34 61 -34 66 0 6 -9 27 -20 48 -44 82
-64 234 -41 314 6 20 6 35 0 38 -5 4 -9 17 -9 29 0 23 -1 23 -92 19 -127 -7
-202 13 -376 98 -202 99 -244 112 -284 88z"/><path d="M8807 5930 c-24 -7 -113 -50 -182 -88 -142 -76 -246 -105 -364 -100
-80 3 -86 2 -86 -17 0 -11 -3 -24 -6 -30 -4 -5 -7 -55 -8 -110 -2 -121 -24
-192 -110 -360 -149 -290 -86 -331 294 -190 199 73 353 92 495 59 14 -3 20 -2
14 3 -12 8 -29 77 -39 155 -11 83 15 246 61 384 37 112 58 276 37 292 -19 14
-64 15 -106 2z"/><path d="M5727 5884 c-72 -50 -132 -64 -268 -64 -152 0 -198 -19 -153 -64 8
-9 12 -16 9 -16 -15 0 51 -79 134 -160 82 -81 151 -183 151 -225 0 -21 6 -19
49 15 49 40 179 86 267 95 38 4 88 14 112 22 23 8 48 11 55 7 6 -4 9 -4 5 0
-4 5 5 18 19 30 32 28 26 50 -18 74 -168 92 -279 208 -279 293 0 13 -24 34
-33 28 -1 -1 -24 -16 -50 -35z"/><path d="M6710 5893 c0 -71 -112 -199 -225 -260 -86 -46 -98 -56 -91 -79 10
-33 88 -65 214 -88 97 -18 219 -67 257 -102 15 -14 28 -24 29 -22 2 2 11 26
21 53 14 39 42 75 132 164 62 62 113 117 113 120 0 4 8 16 18 27 84 93 63 114
-113 114 -138 0 -220 19 -280 64 -39 30 -75 34 -75 9z"/><path d="M7840 5708 c-41 -12 -76 -24 -78 -28 -1 -4 -14 -5 -29 -2 -18 3 -24
1 -19 -7 4 -6 2 -11 -3 -11 -6 0 -11 -6 -11 -13 0 -8 -16 -46 -35 -85 -19 -39
-37 -95 -40 -124 -10 -81 -7 -79 -72 -52 -73 30 -243 35 -265 8 -7 -8 -39 -43
-70 -77 -70 -77 -74 -76 157 -88 198 -10 209 -12 294 -50 77 -35 69 -41 81 65
10 88 18 109 114 291 107 206 106 209 -24 173z"/><path d="M4589 5687 c5 -18 32 -82 61 -142 78 -163 100 -229 107 -322 5 -78
13 -97 28 -73 29 47 185 79 384 80 155 0 179 13 129 69 -22 25 -44 45 -49 43
-5 -1 -8 1 -7 6 20 60 -181 91 -286 44 -65 -29 -63 -31 -69 41 -5 57 -58 202
-84 228 -11 11 -171 59 -199 59 -20 0 -21 -4 -15 -33z"/><path d="M5968 5195 c-3 -3 -40 -14 -84 -26 -121 -31 -144 -39 -144 -54 0 -36
102 -117 290 -230 76 -46 197 -163 212 -205 13 -40 24 -38 38 6 22 67 135 171
280 259 123 74 210 145 210 170 0 12 -36 26 -130 50 -36 9 -73 21 -84 27 -10
5 -16 6 -13 1 3 -5 -31 -31 -76 -58 -98 -60 -156 -115 -181 -172 -22 -51 -31
-53 -44 -14 -16 46 -75 104 -176 172 -52 35 -92 67 -90 71 6 9 0 11 -8 3z"/><path d="M5480 5012 c0 -15 -92 -60 -160 -78 -48 -13 -123 -19 -285 -23 -313
-9 -331 -23 -227 -182 27 -41 78 -105 114 -144 215 -233 297 -359 306 -473 4
-46 32 -64 32 -20 0 66 255 167 555 218 66 12 138 27 160 35 173 58 165 82
-80 243 -202 133 -315 265 -331 385 -6 41 -8 44 -25 34 -14 -9 -21 -9 -31 1
-14 14 -28 16 -28 4z"/><path d="M6950 4993 c-2 -104 -150 -298 -278 -364 -106 -55 -246 -175 -240
-205 7 -37 122 -82 293 -114 236 -45 298 -63 385 -111 19 -11 47 -25 63 -30
15 -6 27 -15 27 -20 0 -5 6 -9 13 -9 7 0 19 -9 27 -21 40 -57 39 -56 40 -17 0
65 76 223 134 282 13 12 27 29 32 38 5 9 36 47 69 84 340 386 339 395 -45 405
-171 5 -238 10 -280 23 -68 22 -160 68 -160 81 0 6 -7 1 -15 -9 -13 -18 -16
-18 -40 -2 -25 16 -25 16 -25 -11z"/><path d="M4460 4715 c-111 -73 -314 -105 -482 -77 -43 7 -58 6 -58 -3 0 -17
48 -155 58 -169 31 -38 67 -195 67 -288 0 -54 2 -97 5 -95 91 54 234 87 374
87 158 0 244 23 214 57 -84 95 -142 322 -119 462 13 79 19 76 -59 26z"/><path d="M7987 4733 c37 -134 -25 -396 -120 -509 -25 -29 -25 -29 7 -30 228
-9 479 -51 552 -93 30 -18 30 -18 31 58 0 91 18 162 84 338 61 164 61 163 7
152 -179 -34 -416 4 -519 83 -46 35 -51 35 -42 1z"/><path d="M6230 4209 c-1 -74 -173 -246 -313 -314 -68 -34 -70 -30 76 -134 101
-72 227 -193 248 -238 15 -32 15 -32 58 27 50 68 186 189 276 244 34 21 85 67
85 76 0 3 -15 12 -34 18 -109 40 -261 176 -318 285 -15 29 -27 44 -28 35 0
-10 -5 -18 -11 -18 -7 0 -18 8 -25 18 -12 15 -13 15 -14 1z"/></g>
<g fill="#cad0b1"><path d="M5126 11137 c-28 -111 -115 -258 -217 -367 -139 -149 -226 -308 -238
-434 -15 -156 60 -360 103 -280 49 93 52 98 184 263 29 36 60 74 68 84 8 9 14
20 14 23 0 4 8 14 18 23 16 15 55 70 114 166 35 56 68 149 68 190 0 44 2 43
55 -2 123 -109 281 -172 555 -223 129 -24 259 -91 246 -127 -6 -15 -5 -16 5
-5 22 21 16 150 -9 196 -57 104 -152 189 -272 243 -70 32 -86 37 -260 84 -63
17 -150 49 -194 71 -88 44 -87 43 -165 115 l-57 52 -18 -72z"/><path d="M7356 11153 c-27 -29 -55 -53 -63 -53 -7 0 -13 -3 -13 -8 0 -9 -121
-72 -139 -72 -6 0 -11 -4 -11 -8 0 -5 -6 -9 -12 -9 -18 -1 -287 -71 -323 -85
-52 -19 -150 -62 -155 -68 -3 -3 -23 -18 -44 -35 -113 -84 -167 -171 -174
-281 -3 -46 -1 -74 7 -78 6 -4 9 -2 5 7 -10 26 139 95 266 122 36 8 106 24
155 35 159 35 318 108 393 179 41 39 42 39 42 15 0 -99 164 -372 323 -539 78
-81 166 -242 144 -264 -6 -6 -8 -11 -5 -11 19 0 89 113 103 165 46 177 -10
349 -177 550 -119 142 -150 183 -154 202 -4 13 -9 23 -13 23 -17 0 -91 193
-91 236 0 37 -12 33 -64 -23z"/><path d="M6245 10440 c-18 -46 -108 -170 -124 -170 -3 0 -22 -14 -41 -31 -19
-17 -63 -47 -97 -67 -35 -20 -63 -40 -63 -44 0 -4 -7 -8 -15 -8 -29 0 -149
-133 -168 -185 -28 -82 -23 -127 18 -164 38 -33 56 -41 35 -16 -17 21 77 108
170 159 99 54 226 172 275 255 36 61 37 61 59 14 27 -61 125 -158 243 -240 18
-13 35 -23 38 -23 29 0 201 -144 192 -162 -1 -2 10 9 26 24 87 89 -10 243
-243 387 -110 68 -208 168 -249 255 -38 79 -32 77 -56 16z"/><path d="M3980 10091 c-47 -10 -120 -28 -163 -40 -137 -39 -385 -38 -435 2
-22 18 -23 0 -2 -36 54 -92 65 -260 29 -463 -50 -285 6 -482 159 -562 45 -24
45 -24 39 10 -5 32 34 243 55 296 32 84 45 311 23 412 -19 84 -19 81 11 70 77
-30 245 -5 439 65 164 59 233 76 316 78 67 2 67 2 48 28 -95 135 -292 188
-519 140z"/><path d="M8263 10100 c-91 -19 -179 -74 -231 -148 -20 -27 -20 -27 43 -28 73
-1 122 -13 265 -64 219 -79 406 -111 489 -82 36 13 37 10 15 -49 -33 -87 -17
-296 37 -474 33 -112 44 -189 32 -240 -12 -52 -14 -51 37 -25 163 83 216 259
165 551 -38 221 -32 325 25 448 36 76 36 76 -21 54 -91 -35 -305 -25 -496 25
-168 44 -259 52 -360 32z"/><path d="M4673 9840 c-2 -79 -17 -128 -93 -290 -71 -153 -85 -208 -70 -274 18
-80 24 -86 83 -85 29 1 44 3 35 6 -23 6 -28 -9 47 144 78 163 119 295 110 358
-4 24 -3 41 2 39 112 -56 169 -68 338 -74 96 -3 165 -11 192 -20 66 -24 119
34 85 91 -42 69 -107 86 -361 94 -226 7 -226 7 -296 42 -70 34 -70 34 -72 -31z"/><path d="M7810 9879 c-79 -42 -137 -52 -330 -54 -220 -2 -274 -14 -347 -79
-35 -30 -29 -45 50 -127 39 -41 54 -56 33 -33 -39 43 -39 43 -10 49 16 4 42
11 58 16 16 5 71 9 123 9 131 0 228 17 297 51 33 16 60 29 61 29 1 0 5 -37 8
-82 6 -94 22 -140 107 -311 59 -117 64 -142 32 -150 -10 -3 0 -5 20 -6 20 0
43 -4 51 -7 20 -7 46 32 59 88 14 65 -11 155 -75 273 -52 96 -86 196 -95 284
-7 69 -7 69 -42 50z"/><path d="M5576 9705 c-22 -56 -69 -118 -147 -192 -139 -131 -182 -218 -159
-320 6 -29 15 -53 19 -53 4 0 13 -10 20 -22 6 -13 9 -15 7 -5 -3 9 -1 17 4 17
6 0 10 5 10 11 0 20 54 84 156 184 96 94 154 177 154 220 0 12 9 9 38 -14 71
-57 177 -98 347 -133 28 -6 67 -24 88 -40 37 -29 37 -29 37 -2 0 106 -100 194
-273 240 -108 29 -185 66 -242 116 -42 37 -42 37 -59 -7z"/><path d="M6930 9725 c-56 -60 -144 -100 -331 -150 -110 -29 -196 -116 -204
-206 -3 -30 -2 -47 2 -39 10 25 35 39 93 56 30 8 64 19 75 23 11 5 54 16 95
26 69 17 128 39 140 54 3 3 21 15 40 25 19 11 39 26 43 33 11 19 27 7 27 -21
0 -35 50 -101 170 -226 116 -120 145 -161 136 -188 -4 -10 3 -6 14 8 76 95 31
256 -105 376 -73 65 -154 175 -164 224 -6 32 -6 32 -31 5z"/><path d="M6260 9311 c0 -20 -83 -99 -131 -125 -158 -84 -235 -191 -193 -267
10 -18 13 -20 14 -7 0 20 43 54 115 93 97 51 120 67 162 107 41 41 41 41 71 7
16 -19 73 -58 126 -88 107 -61 161 -105 150 -123 -5 -7 -3 -8 5 -4 74 46 -7
195 -141 261 -60 29 -118 80 -145 126 -17 28 -33 38 -33 20z"/><path d="M4770 9110 c-118 -31 -244 -39 -279 -20 -18 9 -18 6 -5 -57 15 -70
14 -82 -18 -233 -37 -176 -27 -234 53 -312 51 -51 54 -49 55 35 1 41 13 117
29 176 19 76 26 125 24 180 -2 76 -2 76 33 73 43 -4 165 20 272 54 44 13 105
26 137 27 65 2 66 15 6 61 -71 53 -144 57 -307 16z"/><path d="M7515 9126 c-58 -18 -81 -32 -104 -64 -20 -29 -20 -29 37 -29 31 0
77 -8 102 -17 91 -35 262 -70 311 -63 37 5 37 5 36 -82 0 -54 6 -108 17 -146
10 -33 20 -107 22 -165 5 -118 17 -131 70 -73 72 81 87 179 50 342 -18 81 -19
198 -2 241 5 13 -10 15 -101 15 -82 0 -136 7 -226 28 -131 30 -154 31 -212 13z"/><path d="M5240 8983 c0 -48 -7 -72 -46 -149 -79 -159 -64 -287 33 -283 14 0
15 2 3 7 -25 12 -22 27 29 129 26 54 54 124 61 156 7 31 14 57 14 57 1 0 17
-5 36 -11 20 -6 96 -10 173 -10 133 2 140 1 159 -21 21 -23 21 -23 15 15 -13
82 -68 107 -256 117 -111 6 -143 11 -174 29 -49 28 -47 29 -47 -36z"/><path d="M4058 8996 c-42 -18 -98 -48 -124 -65 -73 -48 -295 -114 -324 -96 -3
2 8 -25 26 -60 33 -66 46 -126 65 -310 15 -153 46 -218 126 -272 28 -19 85
-10 104 15 11 14 11 15 -1 5 -14 -13 -39 -19 -27 -7 3 4 2 15 -4 25 -5 11 -14
80 -19 155 -11 154 -32 250 -66 311 -31 54 -31 53 16 53 89 0 260 66 400 154
78 49 127 56 133 19 2 -15 3 -8 2 16 -6 97 -153 125 -307 57z"/><path d="M7220 9010 c-33 -14 -72 -19 -146 -19 -167 -1 -247 -37 -260 -116 -6
-37 -5 -39 9 -20 14 18 32 20 174 26 87 4 168 10 181 14 20 7 22 4 22 -25 0
-45 37 -144 76 -205 50 -78 54 -109 12 -102 -26 5 -29 5 -15 -4 35 -20 105 16
93 48 -4 9 -1 11 5 7 30 -18 3 130 -39 216 -31 64 -42 99 -44 143 -3 63 -3 63
-68 37z"/><path d="M8215 9017 c-68 -31 -75 -83 -11 -85 22 -1 59 -14 85 -29 166 -97
309 -153 393 -153 26 0 50 -4 53 -10 3 -5 2 -10 -3 -10 -36 0 -88 -164 -108
-341 -9 -74 -18 -150 -21 -170 -6 -47 14 -56 66 -29 97 49 128 125 150 363 12
120 36 205 71 250 28 35 26 37 -28 37 -71 0 -185 33 -250 72 -172 105 -315
142 -397 105z"/><path d="M3170 8798 c-36 -11 -67 -23 -70 -27 -3 -3 -22 -15 -43 -26 -36 -19
-92 -64 -219 -177 -108 -96 -201 -146 -320 -174 l-77 -18 59 -43 c73 -53 150
-155 186 -248 15 -38 38 -95 51 -125 14 -30 34 -77 44 -104 67 -167 251 -300
368 -265 35 10 38 13 25 27 -22 21 -46 77 -104 242 -75 212 -120 301 -191 372
-68 68 -68 68 -33 68 85 0 280 128 387 253 107 128 229 213 265 186 9 -7 4 0
-11 15 -64 63 -198 82 -317 44z"/><path d="M9155 8813 c-77 -16 -138 -51 -156 -88 -8 -16 -6 -15 7 3 35 48 116
2 250 -144 55 -59 108 -114 118 -123 11 -9 35 -30 55 -47 47 -41 164 -101 228
-115 50 -12 50 -12 4 -58 -80 -80 -141 -187 -183 -321 -35 -113 -97 -269 -115
-290 -23 -27 -28 -26 -82 16 -46 36 -46 36 -1 -5 161 -146 384 0 504 330 18
52 43 110 54 129 12 19 29 50 38 68 21 42 115 140 173 181 44 31 44 31 5 31
-50 0 -158 39 -224 79 -28 17 -53 31 -56 31 -8 0 -81 57 -129 102 -79 72 -101
90 -174 139 -108 72 -224 102 -316 82z"/><path d="M4870 8453 c-8 -3 -45 -20 -81 -38 -73 -37 -167 -68 -180 -59 -23 14
-26 -10 -8 -51 14 -32 21 -73 23 -139 5 -136 56 -228 125 -225 17 1 20 3 9 6
-25 6 -32 43 -24 119 7 67 -8 179 -26 201 -13 15 -2 19 69 27 45 4 89 23 198
83 32 18 68 22 84 9 10 -7 9 -1 -3 20 -27 45 -123 69 -186 47z"/><path d="M7513 8446 c-36 -17 -56 -48 -50 -79 4 -19 4 -18 6 5 1 33 40 25 129
-27 59 -35 122 -54 181 -55 26 0 32 -3 27 -15 -27 -70 -37 -145 -31 -221 7
-78 6 -82 -16 -98 -23 -16 -23 -16 2 -16 69 0 129 101 129 218 0 53 6 88 24
131 24 60 24 60 -17 66 -50 8 -122 34 -197 71 -65 32 -142 40 -187 20z"/><path d="M4275 8315 c-27 -8 -51 -19 -53 -25 -2 -5 -9 -10 -16 -10 -11 0 -62
-40 -162 -130 -54 -48 -113 -80 -159 -87 -45 -6 -45 -6 -10 -44 47 -52 80
-122 106 -221 40 -156 131 -246 242 -239 23 1 22 13 -7 55 -13 19 -27 57 -30
83 -14 96 -86 269 -117 281 -24 9 -3 29 52 51 47 18 86 46 163 116 110 100
133 116 185 124 34 6 34 6 -22 34 -61 30 -97 32 -172 12z"/><path d="M8096 8313 c-26 -7 -96 -51 -96 -60 0 -4 5 -2 12 5 32 32 119 -15
219 -119 76 -78 156 -129 206 -129 32 0 36 -16 9 -33 -28 -19 -63 -92 -101
-212 -50 -160 -76 -207 -107 -190 -10 6 -10 5 -2 -4 68 -74 248 61 279 209 15
72 77 194 117 231 40 37 40 37 -14 48 -68 15 -125 51 -214 137 -110 105 -212
144 -308 117z"/><path d="M3654 7906 c-51 -22 -111 -83 -186 -188 -85 -119 -157 -191 -220
-221 -58 -27 -58 -27 3 -56 60 -30 125 -92 175 -170 125 -191 204 -260 299
-261 61 0 103 48 60 70 -24 12 -81 82 -148 184 -57 86 -149 172 -209 195 -21
8 -19 11 25 30 63 27 147 108 204 195 62 95 129 173 154 181 21 7 21 7 -2 31
-26 28 -102 33 -155 10z"/><path d="M8699 7888 c-16 -18 -29 -37 -28 -43 0 -5 3 -4 6 3 13 33 85 -32 163
-148 64 -95 144 -171 222 -211 51 -26 51 -26 2 -50 -50 -24 -184 -145 -184
-166 0 -6 -4 -13 -8 -15 -5 -1 -23 -25 -42 -53 -50 -73 -118 -138 -138 -130
-13 5 -12 1 3 -17 89 -106 197 -54 368 174 83 112 157 182 231 220 29 15 29
15 -18 39 -64 31 -158 119 -203 187 -21 32 -40 59 -43 62 -3 3 -21 25 -40 50
-98 126 -225 169 -291 98z"/><path d="M4567 7748 c-30 -11 -74 -52 -109 -101 -37 -53 -131 -148 -162 -164
-29 -15 -29 -16 -10 -29 10 -7 24 -17 29 -21 6 -4 27 -21 48 -36 20 -15 37
-34 37 -42 0 -7 4 -15 8 -17 5 -1 23 -25 42 -53 80 -120 171 -155 241 -95 22
19 22 20 2 8 -27 -15 -50 3 -96 78 -68 108 -92 144 -99 144 -11 0 -58 42 -58
52 0 4 6 8 14 8 17 0 86 70 86 87 0 7 3 13 8 13 4 0 27 32 52 70 26 41 57 75
72 82 52 23 -45 38 -105 16z"/><path d="M7848 7724 c19 -21 56 -75 84 -118 54 -86 60 -93 101 -119 34 -22 34
-29 -3 -51 -17 -9 -61 -64 -100 -121 -38 -56 -80 -112 -94 -123 -30 -23 -19
-32 43 -32 57 0 110 42 186 145 42 56 86 105 116 125 49 33 49 33 10 56 -44
25 -89 72 -138 145 -54 79 -114 122 -181 127 -57 5 -57 5 -24 -34z"/><path d="M4125 7352 c-69 -28 -117 -101 -162 -242 -15 -47 -31 -86 -35 -88 -4
-2 -8 -10 -8 -18 0 -9 -22 -39 -50 -68 -56 -59 -59 -66 -30 -66 45 0 207 -105
237 -153 4 -7 24 -24 43 -37 19 -13 37 -27 40 -30 48 -52 209 -74 275 -37 30
16 30 16 4 17 -32 0 -88 41 -152 109 -27 28 -65 63 -85 78 -20 16 -39 30 -42
33 -9 9 -45 30 -82 47 -42 20 -45 25 -23 43 25 21 74 135 96 227 23 95 62 169
94 180 19 6 18 7 -5 14 -40 11 -72 9 -115 -9z"/><path d="M8262 7363 c-23 -4 -23 -4 2 -24 40 -32 63 -79 91 -184 29 -111 52
-165 90 -210 26 -30 26 -30 -43 -61 -55 -25 -89 -51 -168 -130 -132 -132 -182
-154 -209 -91 -8 17 -14 26 -15 19 -1 -49 64 -84 160 -86 82 -1 154 31 237
107 100 92 191 155 233 162 50 8 50 8 -8 69 -40 43 -54 69 -86 161 -62 176
-104 235 -190 260 -51 15 -54 16 -94 8z"/><path d="M2972 7322 c-103 -54 -163 -134 -232 -309 -102 -256 -137 -311 -254
-401 l-60 -46 83 -22 c122 -34 259 -118 363 -225 91 -93 240 -180 338 -199
105 -20 229 -2 261 37 8 9 9 14 2 10 -14 -9 -139 90 -214 169 -100 105 -157
155 -239 208 -78 51 -139 76 -185 76 -45 0 -44 0 15 56 57 54 115 160 155 286
15 46 36 112 47 148 27 85 66 169 92 198 45 51 -83 61 -172 14z"/><path d="M9371 7341 c-11 -7 -10 -12 5 -29 23 -25 83 -190 119 -326 30 -119
92 -239 158 -310 47 -51 47 -51 5 -56 -47 -6 -168 -58 -168 -71 0 -5 -5 -9
-11 -9 -27 0 -139 -104 -278 -259 -92 -103 -148 -135 -183 -105 -19 16 -21 16
-9 1 19 -24 66 -43 141 -58 146 -29 317 43 492 207 127 119 249 192 359 215
85 18 87 22 30 58 -99 64 -202 210 -247 351 -62 197 -165 338 -277 379 -61 22
-113 27 -136 12z"/><path d="M5413 7154 c-18 -14 -33 -32 -33 -40 0 -8 -4 -14 -10 -14 -17 0 -11
-96 7 -128 49 -86 183 -88 240 -3 83 123 -87 277 -204 185z"/><path d="M6953 7164 c-67 -33 -108 -195 -47 -184 5 1 10 -4 13 -11 2 -7 -1 -9
-8 -5 -7 4 -9 1 -5 -8 14 -35 128 -69 161 -48 7 5 -11 8 -42 8 -29 -1 -58 4
-64 9 -7 7 15 10 64 11 42 0 71 -4 68 -9 -3 -5 4 -4 16 2 64 35 68 201 3 176
-16 -6 -72 15 -72 28 0 5 5 5 12 1 23 -14 89 -22 85 -10 -15 47 -122 70 -184
40z"/><path d="M4707 6980 c-68 -21 -96 -82 -107 -235 -4 -60 -12 -123 -19 -138 -17
-42 -15 -44 37 -51 26 -3 90 -26 142 -51 136 -64 216 -63 267 5 9 13 5 15 -25
17 -21 2 -75 23 -123 47 -47 24 -103 47 -125 51 -65 11 -68 13 -53 32 10 12
14 53 15 152 1 142 7 176 31 167 8 -3 11 -1 8 4 -7 11 -10 11 -48 0z"/><path d="M7766 6976 c17 -13 19 -25 17 -113 -2 -90 6 -174 22 -214 5 -13 -3
-18 -45 -23 -48 -6 -86 -23 -173 -75 -55 -34 -105 -43 -117 -22 -5 9 -10 11
-10 4 0 -6 14 -25 31 -42 46 -46 126 -45 229 5 90 43 153 64 198 64 38 0 37
-4 11 56 -15 32 -24 81 -29 149 -8 116 -32 174 -83 205 -40 25 -83 29 -51 6z"/><path d="M6616 6849 c-40 -32 -59 -76 -53 -125 4 -40 43 -111 55 -100 3 3 -2
14 -10 23 -12 14 -13 21 -5 29 18 16 9 117 -9 110 -21 -8 -17 10 10 41 13 15
28 24 33 20 4 -5 0 -14 -10 -21 -9 -7 -17 -17 -17 -21 0 -5 8 -1 18 7 9 8 33
21 52 28 34 14 34 14 10 21 -40 11 -46 10 -74 -12z"/><path d="M6781 6848 c9 -7 14 -19 11 -27 -2 -8 -1 -11 4 -8 5 3 10 -22 11 -54
1 -32 -1 -59 -5 -59 -4 0 -8 -9 -8 -19 0 -11 4 -17 8 -15 22 14 4 -16 -18 -31
-23 -15 -27 -15 -43 -1 -19 18 -61 22 -61 6 0 -16 -37 -12 -44 5 -3 8 -2 23 1
33 7 16 6 16 -11 0 -16 -16 -16 -19 -2 -34 9 -8 14 -19 11 -24 -3 -4 5 -6 17
-2 14 3 19 2 14 -6 -10 -17 57 -15 99 2 88 37 101 211 17 240 -15 5 -15 5 -1
-6z"/><path d="M3795 6721 c-78 -48 -104 -112 -120 -300 -16 -183 -28 -232 -69 -301
-32 -55 -32 -55 38 -56 91 -1 119 -10 301 -102 166 -83 252 -101 341 -72 85
28 90 85 9 93 -32 3 -74 16 -98 30 -154 90 -236 124 -317 133 -30 3 -64 8 -75
9 -11 2 -23 4 -28 4 -4 1 6 25 22 54 39 70 49 125 55 307 7 184 11 204 40 196
20 -5 21 -5 2 9 -27 20 -65 19 -101 -4z"/><path d="M8630 6714 c6 -14 10 -91 10 -171 0 -155 11 -220 55 -320 31 -68 31
-63 -7 -63 -73 -1 -168 -31 -292 -93 -157 -78 -213 -97 -227 -76 -6 9 -9 -1
-9 -33 0 -46 1 -47 45 -64 54 -20 155 -15 206 10 17 9 38 16 44 16 7 0 50 21
96 46 113 63 209 96 297 102 66 4 71 6 59 21 -50 56 -75 149 -87 316 -12 178
-26 223 -87 291 -42 46 -119 60 -103 18z"/><path d="M4498 6427 c-86 -81 -96 -152 -48 -343 27 -107 31 -139 26 -192 -7
-63 -7 -63 31 -55 62 13 142 4 247 -27 158 -47 266 -34 335 41 30 34 43 61 18
41 -23 -19 -121 -5 -234 34 -88 30 -123 38 -188 38 -81 1 -81 1 -77 56 4 57
-13 142 -49 240 -13 35 -21 81 -21 127 -1 40 -2 73 -3 73 -1 0 -18 -15 -37
-33z"/><path d="M7962 6396 c-1 -33 -8 -88 -16 -121 -40 -172 -47 -213 -44 -261 3
-52 3 -52 -54 -46 -32 2 -79 -1 -105 -8 -72 -18 -145 -40 -168 -50 -19 -8 -90
-24 -148 -33 -18 -3 -31 1 -37 12 -5 9 -10 11 -10 5 0 -18 59 -71 105 -93 61
-28 134 -27 242 5 113 33 216 43 276 28 46 -12 46 -12 40 75 -4 70 -1 102 18
171 50 189 31 288 -69 359 -27 19 -27 19 -30 -43z"/><path d="M5159 6331 c-48 -49 -43 -130 17 -245 34 -66 48 -105 51 -147 6 -58
6 -58 34 -43 36 18 149 33 252 34 115 0 187 43 187 109 -1 23 -2 24 -11 8 -9
-16 -26 -17 -163 -16 -96 1 -161 -3 -174 -10 -29 -16 -30 -16 -37 32 -4 23
-30 82 -57 131 -62 107 -76 163 -44 169 19 4 19 4 -2 6 -14 0 -36 -11 -53 -28z"/><path d="M7293 6353 c35 -5 34 -14 -8 -93 -58 -109 -83 -166 -91 -204 -6 -36
-8 -37 -38 -29 -17 4 -94 6 -172 4 -126 -3 -143 -1 -159 15 -18 18 -18 18 -12
-16 16 -78 58 -96 242 -103 99 -4 141 -10 176 -25 47 -20 47 -20 51 36 4 52
14 78 73 190 56 107 18 236 -68 231 -17 -2 -16 -3 6 -6z"/><path d="M6583 5983 c12 -19 -75 -97 -132 -120 -94 -37 -130 -63 -174 -125
-17 -23 -17 -23 -34 2 -38 54 -72 80 -146 114 -48 23 -92 52 -117 78 -33 36
-42 40 -50 28 -41 -64 31 -170 157 -231 51 -25 163 -124 163 -145 0 -23 14
-16 28 15 15 33 98 100 199 159 39 23 82 56 94 74 27 38 39 140 19 153 -8 5
-11 4 -7 -2z"/><path d="M8913 5928 c21 -16 0 -180 -37 -292 -46 -138 -72 -301 -61 -384 10
-78 27 -147 39 -155 6 -5 0 -6 -14 -3 -142 33 -296 14 -495 -59 -150 -56 -259
-85 -317 -85 -31 0 -31 0 8 -43 124 -137 307 -162 619 -82 211 53 348 53 490
-1 13 -5 12 0 -4 27 -66 114 -80 280 -40 471 63 292 3 511 -164 605 -29 16
-45 16 -24 1z"/><path d="M3550 5913 c-151 -99 -203 -271 -161 -532 42 -260 38 -405 -14 -504
-14 -27 -25 -50 -25 -52 0 -1 32 6 72 16 121 32 222 25 483 -35 160 -37 234
-42 334 -21 111 22 146 38 208 94 33 29 80 108 50 82 -29 -23 -175 4 -317 59
-205 80 -432 110 -513 68 -28 -14 -29 -6 -6 42 19 39 21 56 16 169 -5 125 -9
147 -82 406 -9 33 -17 97 -18 142 -1 46 -2 83 -2 82 0 0 -11 -7 -25 -16z"/><path d="M5302 5812 c-95 -61 -70 -252 49 -377 134 -140 151 -161 173 -210 13
-27 26 -58 30 -69 6 -16 11 -14 50 22 66 61 107 79 299 127 164 42 295 213
215 281 -23 19 -23 19 -5 -2 23 -28 22 -39 -8 -62 -13 -11 -21 -23 -17 -27 4
-5 1 -5 -5 -1 -7 4 -32 1 -55 -7 -24 -8 -74 -18 -112 -22 -88 -9 -218 -55
-267 -95 -43 -34 -49 -36 -49 -15 0 42 -69 144 -151 225 -83 81 -149 160 -134
160 3 0 -1 7 -9 16 -22 22 -20 39 7 52 12 6 18 11 12 11 -5 0 -16 -3 -23 -7z"/><path d="M7214 5754 c-10 -16 -27 -38 -36 -48 -10 -11 -18 -23 -18 -27 0 -3
-51 -58 -113 -120 -90 -89 -118 -125 -132 -164 -10 -27 -19 -51 -21 -53 -1 -2
-14 8 -29 22 -38 35 -160 84 -257 102 -125 23 -199 53 -217 88 -8 18 -10 15
-10 -19 -1 -121 95 -195 330 -256 105 -27 153 -51 203 -101 40 -39 40 -39 52
0 19 66 79 153 157 230 41 40 87 97 102 125 52 98 42 303 -11 221z"/><path d="M4544 5720 c-93 -37 -74 -267 36 -430 29 -43 72 -182 77 -252 6 -67
6 -67 42 -44 76 46 143 59 366 66 235 7 281 18 324 79 24 34 -6 91 -86 161
-22 19 -21 17 5 -11 41 -45 8 -59 -139 -59 -199 -1 -355 -33 -384 -80 -15 -24
-23 -5 -28 73 -7 93 -29 159 -107 322 -67 138 -76 172 -46 178 14 3 12 5 -9 5
-16 0 -39 -3 -51 -8z"/><path d="M7944 5722 c5 -9 -30 -91 -80 -187 -96 -182 -104 -203 -114 -291 -12
-106 -4 -100 -81 -65 -85 38 -96 40 -294 51 -233 13 -228 10 -168 74 45 48 45
48 5 11 -91 -84 -127 -142 -106 -168 56 -66 108 -79 349 -88 224 -8 311 -24
369 -70 26 -20 26 -20 26 50 0 72 39 212 60 219 6 2 10 10 10 17 0 7 21 56 46
109 72 148 74 299 5 336 -24 12 -34 13 -27 2z"/><path d="M5724 5113 c-77 -114 16 -259 264 -410 114 -70 214 -168 243 -239 28
-66 30 -66 54 -3 30 76 109 157 243 245 147 97 205 145 233 192 13 20 26 39
31 42 19 14 20 117 2 155 -13 28 -19 34 -23 22 -13 -37 -87 -97 -211 -172
-145 -88 -258 -192 -280 -259 -14 -44 -25 -46 -38 -6 -15 42 -136 159 -212
205 -228 137 -329 227 -277 248 7 4 8 6 1 6 -7 1 -20 -11 -30 -26z"/><path d="M4747 4858 c-158 -213 -101 -454 179 -755 95 -101 177 -253 190 -351
7 -53 7 -53 73 11 88 86 184 132 351 171 36 8 99 22 140 32 230 53 430 229
430 377 0 50 -13 77 -26 55 -19 -30 -115 -61 -269 -88 -300 -51 -555 -152
-555 -218 0 -44 -28 -26 -32 20 -9 114 -91 240 -306 473 -126 136 -189 250
-157 285 10 11 15 20 12 20 -3 0 -17 -15 -30 -32z"/><path d="M7770 4844 c0 -35 -74 -132 -255 -338 -33 -37 -64 -75 -69 -84 -5 -9
-19 -26 -32 -38 -58 -59 -134 -217 -134 -282 -1 -39 0 -40 -40 17 -8 12 -20
21 -27 21 -7 0 -13 4 -13 9 0 5 -12 14 -27 20 -16 5 -44 19 -63 30 -87 48
-149 66 -385 111 -171 32 -286 77 -293 114 -3 11 14 36 48 68 28 27 43 45 33
40 -96 -53 -130 -179 -77 -285 67 -134 213 -223 471 -287 256 -64 328 -98 427
-197 l52 -52 11 54 c22 105 126 284 221 384 173 180 261 408 223 573 -11 49
-70 151 -71 122z"/></g>
<g fill="#6f7e55"><path d="M6265 11861 c-3 -11 -3 -26 1 -32 4 -8 3 -9 -4 -5 -6 4 -18 -6 -26
-22 -8 -16 -27 -44 -42 -62 -21 -24 -24 -34 -15 -40 9 -5 10 -10 2 -14 -6 -4
-11 -2 -11 3 0 6 -5 11 -10 11 -6 0 -10 -8 -8 -17 2 -12 -3 -17 -14 -15 -10 2
-18 -1 -18 -6 0 -5 -26 -27 -57 -48 -32 -22 -60 -42 -63 -45 -3 -4 -30 -21
-60 -38 -275 -159 -368 -247 -387 -366 -5 -32 -5 -32 73 -53 147 -40 138 -41
186 13 24 26 79 75 123 108 102 78 235 188 235 196 0 3 15 22 34 41 18 20 41
50 50 68 21 40 21 40 45 -5 23 -44 107 -132 195 -205 34 -28 63 -54 66 -57 3
-3 28 -21 55 -40 28 -19 76 -61 109 -94 58 -59 58 -59 125 -42 155 38 143 31
135 73 -19 113 -86 183 -306 321 -205 129 -275 189 -349 305 -48 75 -58 85
-64 67z"/><path d="M3820 11061 c18 -62 22 -160 10 -233 -17 -106 -25 -128 -120 -338
-46 -101 -59 -154 -60 -238 0 -80 4 -82 137 -49 120 30 110 25 117 57 11 53
25 99 62 215 36 112 39 128 39 238 0 64 1 117 3 117 1 0 26 -12 54 -26 72 -37
159 -53 350 -64 92 -5 185 -16 207 -23 39 -14 39 -14 70 27 17 23 45 58 63 80
33 38 33 38 -1 67 -83 69 -101 72 -386 80 -143 3 -280 11 -305 17 -74 18 -161
50 -206 77 -43 25 -43 25 -34 -4z"/><path d="M8614 11040 c-115 -55 -168 -62 -429 -65 -254 -3 -293 -10 -383 -65
-63 -38 -62 -28 -3 -99 27 -33 55 -69 63 -80 14 -20 19 -21 61 -11 25 5 121
15 214 20 168 11 278 35 340 76 33 21 36 18 29 -28 -10 -66 9 -180 54 -328 22
-74 44 -156 47 -182 4 -32 11 -49 22 -52 59 -18 234 -57 237 -53 38 37 5 206
-70 361 -101 207 -131 357 -103 509 4 20 6 37 4 36 -1 0 -39 -18 -83 -39z"/><path d="M6253 9903 c-17 -38 -119 -140 -163 -163 -68 -35 -75 -52 -28 -75 51
-25 129 -95 174 -158 35 -48 35 -48 60 -11 20 29 23 39 12 46 -10 8 -9 9 4 5
10 -4 28 7 48 29 32 36 130 104 150 104 5 0 10 5 10 10 0 7 -6 7 -20 0 -14 -7
-20 -7 -20 0 0 5 5 10 11 10 17 0 -1 20 -44 47 -43 27 -155 135 -172 166 -9
16 -11 15 -22 -10z"/><path d="M3137 9773 c-9 -2 -15 -9 -12 -14 3 -5 -1 -6 -10 -3 -21 8 -197 -74
-225 -105 -5 -6 -132 -65 -175 -82 -58 -23 -108 -32 -196 -38 l-96 -6 52 -86
c65 -108 82 -182 100 -431 13 -193 25 -242 71 -310 34 -49 50 -56 72 -33 11
11 12 15 3 10 -10 -6 -12 -4 -7 4 4 6 12 9 17 6 5 -3 32 15 61 42 29 26 54 48
55 48 1 0 -7 52 -17 115 -10 63 -25 161 -34 218 -15 99 -68 239 -96 257 -21
13 -8 25 28 25 68 0 216 37 317 80 55 23 124 49 152 57 49 15 53 18 59 52 3
20 10 50 14 66 30 103 19 130 -50 132 -36 0 -73 -1 -83 -4z"/><path d="M9258 9774 c-21 -6 -23 -41 -8 -130 18 -102 17 -101 52 -108 18 -3
92 -31 164 -60 134 -56 249 -86 329 -86 52 0 53 -3 20 -52 -14 -20 -25 -40
-25 -44 0 -4 -6 -15 -14 -23 -18 -20 -52 -178 -66 -302 -6 -52 -17 -117 -24
-146 -14 -52 -14 -52 57 -118 85 -77 74 -75 125 -23 61 61 72 104 87 338 17
251 59 401 131 461 43 36 35 44 -45 46 -121 3 -208 28 -338 95 -65 34 -157 81
-205 106 -85 44 -183 63 -240 46z"/><path d="M7550 9504 c-56 -19 -190 -42 -212 -36 -11 3 -11 1 18 -58 19 -39 28
-77 32 -132 2 -43 7 -78 9 -78 2 0 27 12 55 27 46 24 64 27 145 28 105 0 103
-2 67 75 -14 30 -31 87 -38 125 -11 71 -11 71 -76 49z"/><path d="M4919 9483 c0 -24 -41 -156 -63 -204 -6 -14 5 -17 79 -22 68 -4 99
-11 145 -34 57 -28 57 -28 63 52 4 77 30 153 57 170 24 15 5 22 -73 28 -46 4
-105 14 -133 22 -67 20 -74 19 -75 -12z"/><path d="M5822 8836 c-7 -19 -37 -62 -67 -95 -50 -57 -71 -92 -44 -75 8 5 8 1
0 -14 -15 -28 -32 -38 -25 -15 5 17 5 17 -6 1 -18 -28 -26 -123 -10 -113 8 5
11 4 6 -3 -27 -43 50 -112 125 -112 25 0 75 -9 110 -20 72 -23 130 -11 144 27
3 10 24 32 46 48 94 69 115 118 84 191 -28 67 -107 134 -157 134 -40 0 -149
38 -174 61 -20 19 -20 19 -32 -15z"/><path d="M6690 8851 c0 -13 -66 -37 -140 -52 -208 -40 -281 -207 -137 -313 20
-15 44 -40 52 -57 9 -16 23 -29 33 -29 10 0 27 -7 40 -15 18 -13 32 -14 84 -5
35 6 88 15 118 20 168 29 186 171 42 333 -33 38 -64 82 -67 98 -6 26 -25 42
-25 20z"/><path d="M4228 8690 c-42 -16 -104 -35 -138 -42 -48 -10 -59 -15 -54 -28 23
-53 35 -99 41 -153 3 -34 10 -70 15 -79 6 -12 5 -18 -3 -18 -7 0 -10 -2 -7 -5
3 -3 39 11 79 31 61 31 89 39 159 44 47 4 67 8 45 9 -27 1 -36 4 -26 10 8 5
10 14 6 22 -5 8 1 6 12 -4 20 -18 20 -15 -4 45 -15 36 -28 92 -31 131 -2 37
-7 67 -11 66 -3 0 -41 -13 -83 -29z"/><path d="M8202 8640 c-10 -68 -41 -146 -71 -183 -15 -18 -13 -19 29 -16 56 3
117 -14 195 -53 43 -22 56 -26 45 -13 -14 17 -13 17 8 6 12 -7 20 -16 17 -21
-3 -5 -1 -11 5 -15 5 -3 10 -5 10 -3 1 41 32 244 40 258 15 27 12 40 -8 40
-17 0 -179 41 -214 54 -46 16 -46 16 -56 -54z"/><path d="M5330 8491 c-30 -11 -82 -20 -115 -20 -60 -1 -60 -1 -57 -55 2 -31
-3 -79 -12 -109 -22 -76 -20 -105 10 -165 24 -48 51 -74 37 -34 -3 9 -3 14 1
10 4 -3 9 -14 10 -25 7 -49 120 -54 216 -9 30 14 66 26 80 26 38 0 70 27 70
58 0 15 13 52 30 82 88 163 -75 309 -270 241z"/><path d="M7060 8503 c-37 -12 -59 -27 -53 -36 4 -6 1 -7 -6 -3 -57 36 -104
-139 -61 -224 11 -22 20 -48 20 -59 0 -11 8 -25 18 -30 12 -8 13 -10 3 -11
-28 0 23 -29 52 -30 15 0 50 -11 77 -25 52 -26 96 -34 84 -13 -4 7 -3 8 5 4 6
-4 8 -12 5 -18 -14 -23 85 -1 121 26 63 48 77 117 51 240 -7 33 -9 79 -6 103
7 43 7 43 -44 43 -28 0 -84 9 -125 20 -73 20 -111 23 -141 13z"/><path d="M2445 8083 c-86 -35 -138 -92 -267 -293 -79 -124 -176 -219 -267
-262 -69 -32 -69 -32 -26 -53 113 -58 200 -143 286 -280 78 -126 148 -225 174
-247 62 -54 155 -88 173 -64 12 15 74 167 70 171 -23 23 -104 121 -169 203
-88 111 -153 173 -211 203 -36 18 -50 39 -28 39 12 0 59 32 109 74 33 27 118
124 171 196 14 18 49 58 78 88 57 61 57 62 16 142 -12 25 -26 57 -30 73 -7 31
-22 33 -79 10z"/><path d="M9966 8015 c-54 -118 -54 -111 1 -164 26 -25 73 -77 102 -116 75 -98
188 -207 238 -231 52 -24 53 -34 4 -57 -21 -9 -47 -25 -58 -35 -11 -9 -36 -31
-56 -48 -19 -18 -74 -79 -121 -137 -48 -58 -105 -121 -127 -141 -41 -34 -41
-34 -14 -98 15 -34 32 -78 37 -95 14 -41 30 -42 111 -5 93 43 151 111 270 315
56 95 195 221 290 262 29 13 30 14 8 15 -13 0 -21 3 -18 7 10 9 -44 35 -60 28
-8 -2 -12 -1 -9 4 3 5 -7 17 -22 26 -43 28 -153 146 -201 218 -25 36 -49 63
-55 60 -5 -3 -6 -1 -2 5 21 34 -118 198 -199 237 -77 36 -80 35 -119 -50z"/><path d="M5046 8012 c-23 -3 -26 -6 -15 -13 10 -8 9 -9 -7 -4 -26 7 -77 -11
-69 -25 3 -5 0 -8 -7 -5 -7 2 -35 -15 -63 -40 -27 -24 -67 -52 -88 -61 -21
-10 -34 -20 -30 -23 18 -14 52 -94 59 -138 20 -143 150 -231 266 -180 36 15
116 111 110 130 -1 5 2 6 8 2 13 -8 67 24 73 44 3 9 8 25 13 35 5 15 4 17 -6
11 -8 -5 -11 -4 -7 2 4 6 0 27 -8 47 -8 19 -15 52 -15 72 0 89 -103 159 -214
146z"/><path d="M7425 8013 c-93 -17 -148 -72 -160 -164 -4 -30 -14 -66 -21 -81 -21
-41 -8 -83 33 -104 19 -11 52 -43 74 -71 50 -67 80 -86 132 -86 51 0 131 38
123 58 -3 8 0 12 7 9 16 -6 64 68 72 110 14 77 29 115 51 140 19 19 21 26 9
26 -8 0 -15 -4 -15 -10 0 -5 -5 -10 -11 -10 -6 0 -9 7 -5 15 3 8 2 15 -2 15
-5 0 -38 24 -74 54 -93 77 -160 108 -213 99z"/><path d="M3852 7646 c-34 -49 -147 -166 -160 -166 -7 0 -12 -4 -12 -10 0 -5 5
-10 11 -10 20 0 87 -54 105 -85 19 -32 29 -46 57 -76 9 -10 17 -25 17 -31 0
-7 8 3 17 22 10 19 41 59 71 88 29 30 51 56 48 60 -9 9 15 32 33 32 11 -1 8
-5 -9 -15 -31 -18 -11 -20 23 -2 25 13 25 13 -22 39 -56 32 -80 56 -123 129
-34 57 -34 57 -56 25z"/><path d="M8600 7633 c-13 -25 -25 -55 -27 -67 -4 -25 -80 -99 -94 -90 -5 3 -6
10 -3 16 4 6 -7 2 -25 -8 -31 -18 -31 -18 6 -38 21 -10 41 -23 44 -29 4 -5 13
-6 20 -2 8 5 11 5 7 0 -10 -10 11 -37 23 -29 5 3 6 -2 3 -11 -4 -10 -2 -14 8
-10 8 3 22 -3 32 -14 10 -11 23 -18 27 -15 5 3 6 -2 3 -10 -5 -14 -8 -14 -21
-1 -25 26 -24 17 4 -34 31 -54 34 -53 76 30 26 51 105 139 125 139 10 0 -4 18
-36 46 -30 26 -75 75 -101 109 -47 63 -47 63 -71 18z"/><path d="M4935 7382 c-71 -34 -108 -82 -124 -160 -6 -29 -19 -67 -28 -85 -9
-18 -16 -35 -15 -39 1 -5 -6 -8 -16 -8 -9 -1 1 -7 22 -15 23 -8 63 -38 94 -69
139 -141 330 -124 363 34 6 30 18 67 25 82 28 54 19 100 -26 135 -22 17 -54
49 -70 71 -58 80 -134 98 -225 54z"/><path d="M7450 7390 c0 -11 -59 -50 -75 -50 -5 1 8 12 30 25 22 14 36 25 30
25 -20 0 -74 -39 -90 -67 -9 -15 -37 -44 -61 -63 -48 -38 -56 -70 -33 -127 7
-15 15 -54 19 -86 21 -157 204 -184 345 -51 28 26 73 58 100 70 28 13 42 23
33 23 -10 1 -17 4 -16 9 1 4 -5 21 -15 38 -9 18 -19 51 -23 75 -10 65 -54 136
-76 123 -5 -3 -7 0 -6 7 5 20 -73 59 -119 59 -24 0 -43 -5 -43 -10z"/><path d="M5250 6871 c0 -5 -9 -7 -20 -4 -27 7 -105 -73 -113 -117 -11 -53 -8
-115 8 -160 8 -23 15 -64 15 -91 0 -49 0 -49 45 -49 25 0 78 -9 117 -20 214
-59 325 36 268 230 -12 41 -23 85 -23 98 -2 21 -17 32 -17 11 0 -5 -5 -7 -10
-4 -6 4 -8 10 -5 14 2 5 -8 11 -23 14 -15 4 -43 16 -62 29 -67 42 -180 73
-180 49z"/><path d="M7150 6856 c-36 -13 -81 -33 -100 -45 -19 -11 -44 -21 -55 -22 -11 0
-14 -3 -7 -6 6 -2 12 -9 12 -14 0 -4 -6 -6 -14 -3 -19 7 -66 -130 -66 -194 0
-126 122 -188 281 -143 41 12 97 21 123 21 48 0 48 0 42 38 -4 21 0 61 9 95
56 214 -44 336 -225 273z"/><path d="M8408 6548 c-27 -25 -138 -68 -178 -69 -22 0 -23 -1 -6 -8 14 -5 16
-10 8 -15 -7 -4 -12 -4 -12 0 0 3 -6 1 -14 -5 -14 -12 -14 -38 0 -133 3 -26
10 -45 15 -42 5 3 9 -3 10 -13 0 -10 3 -13 6 -5 2 6 14 12 25 12 17 0 18 -3 8
-15 -7 -8 -21 -15 -31 -15 -14 0 -19 -7 -19 -26 0 -14 4 -23 10 -19 6 4 8 11
4 16 -3 5 -2 8 3 7 4 -1 33 10 63 24 30 15 84 33 120 39 36 7 66 14 68 15 2 1
-3 17 -11 36 -14 34 -25 108 -29 196 -2 48 -6 50 -40 20z"/><path d="M4070 6551 c10 -7 11 -11 3 -11 -8 0 -13 -14 -13 -38 0 -52 -19 -151
-35 -182 -13 -25 -13 -25 46 -37 32 -6 86 -25 119 -41 49 -23 60 -26 61 -13 0
12 3 11 9 -4 8 -18 9 -17 9 7 1 15 7 31 15 35 7 4 16 26 19 48 3 22 8 47 9 55
4 20 49 93 62 102 6 4 -2 8 -18 8 -22 0 -27 -3 -22 -17 5 -16 5 -16 -6 -2 -8
9 -36 18 -67 22 -29 4 -83 21 -120 39 -77 38 -92 43 -71 29z"/><path d="M5920 6520 c-25 -11 -71 -19 -104 -19 -195 -2 -237 -177 -82 -341 34
-36 68 -79 75 -97 13 -32 13 -32 53 -12 21 11 71 28 111 38 184 46 254 140
201 271 -3 8 -27 29 -52 45 -26 17 -57 46 -70 65 -20 31 -69 71 -82 69 -3 -1
-25 -9 -50 -19z"/><path d="M6550 6530 c0 -4 -11 -11 -25 -14 -29 -7 -76 -72 -68 -95 4 -12 3
-13 -5 -3 -27 39 -122 -66 -122 -135 1 -65 63 -146 111 -146 16 0 25 -3 19 -7
-18 -11 140 -66 212 -73 9 -1 15 -5 12 -8 -2 -4 0 -10 4 -13 5 -3 18 14 28 37
10 23 47 73 81 110 75 82 92 127 75 193 -14 52 -39 94 -56 94 -6 0 -4 -5 4
-10 13 -8 12 -10 -2 -10 -10 0 -18 6 -18 14 0 20 -45 34 -120 38 -36 2 -80 11
-97 20 -18 9 -33 13 -33 8z"/><path d="M2664 6286 c-67 -71 -92 -164 -100 -356 -9 -238 -51 -389 -135 -485
-31 -35 -31 -35 45 -35 141 0 261 -38 416 -132 159 -96 261 -138 343 -138 43
0 42 -6 22 132 -16 104 -21 113 -65 125 -14 3 -52 23 -85 43 -119 72 -188 96
-316 112 -96 12 -96 12 -63 73 43 79 61 149 75 302 6 70 17 147 25 172 14 46
14 46 -23 80 -21 19 -58 53 -83 76 -34 31 -48 39 -56 31z"/><path d="M9800 6269 c-140 -114 -140 -114 -120 -179 10 -33 21 -100 25 -148
13 -169 34 -256 82 -334 26 -42 29 -63 11 -55 -62 22 -447 -114 -538 -190 -8
-7 -38 -208 -33 -217 21 -33 201 17 328 91 224 131 321 165 468 164 78 0 78 0
42 50 -87 118 -113 217 -124 480 -8 199 -28 272 -90 337 -26 26 -20 26 -51 1z"/><path d="M5087 5705 c-53 -27 -130 -45 -198 -45 -67 0 -67 0 -31 -87 19 -49
37 -111 40 -139 4 -51 4 -51 52 -33 33 12 79 19 143 20 96 1 96 1 64 62 -27
51 -33 75 -37 149 -5 88 -5 88 -33 73z"/><path d="M7388 5635 c-4 -60 -12 -90 -40 -145 l-34 -70 90 0 c56 -1 106 -7
131 -16 76 -29 71 -30 78 25 3 28 22 88 42 133 47 109 50 103 -58 104 -70 0
-105 6 -145 22 -29 12 -54 22 -56 22 -2 0 -6 -34 -8 -75z"/><path d="M6226 5385 c-11 -19 -38 -54 -60 -76 -23 -23 -33 -39 -23 -36 24 9
21 0 -4 -14 -15 -8 -19 -8 -15 0 4 6 3 11 -3 11 -5 0 -14 -6 -18 -13 -4 -7
-34 -24 -66 -39 -59 -26 -59 -26 36 -92 97 -68 160 -128 172 -165 9 -29 18
-26 33 8 7 16 20 38 30 49 9 12 24 30 32 40 8 11 31 29 50 40 154 87 153 87
98 113 -29 13 -75 43 -102 66 -28 23 -53 39 -56 37 -2 -3 2 -10 10 -15 13 -9
13 -10 0 -6 -8 2 -15 12 -15 23 0 10 -10 35 -23 54 -12 19 -22 40 -22 45 0 6
-5 3 -10 -5 -8 -11 -12 -12 -18 -3 -5 8 -14 1 -26 -22z"/><path d="M8698 4682 c-60 -16 -98 -32 -98 -40 0 -7 -22 -72 -49 -145 -72 -194
-86 -251 -86 -345 0 -45 -2 -81 -5 -79 -87 52 -203 82 -355 92 -55 3 -135 11
-178 17 -82 12 -105 5 -92 -30 3 -7 0 -10 -6 -6 -6 3 -18 -4 -27 -17 -9 -13
-32 -41 -51 -62 -41 -45 -28 -65 64 -104 80 -33 99 -35 320 -38 243 -3 346
-22 454 -81 47 -26 62 -31 57 -18 -46 121 2 334 125 554 62 111 96 255 73 314
-8 21 -30 19 -146 -12z"/><path d="M3666 4678 c-19 -72 5 -157 93 -339 107 -219 141 -366 113 -486 -10
-42 -10 -42 37 -17 25 13 59 28 74 34 16 5 25 14 22 20 -3 5 0 7 9 4 8 -3 43
2 78 11 47 13 117 17 283 19 220 3 368 27 349 57 -3 5 1 6 8 4 8 -3 24 5 36
18 23 24 23 24 -21 73 -24 27 -53 63 -65 80 -20 30 -24 31 -59 23 -21 -4 -111
-13 -199 -18 -208 -13 -302 -34 -356 -79 -25 -21 -37 -7 -28 34 16 69 -18 234
-75 362 -18 42 -39 98 -45 123 -11 45 -11 45 -118 72 -128 33 -128 33 -136 5z"/><path d="M5780 3841 c-30 -10 -80 -24 -110 -31 -95 -20 -91 -19 -78 -43 6 -12
16 -27 23 -33 6 -7 22 -25 36 -41 22 -26 155 -119 224 -157 36 -20 49 -28 140
-87 85 -56 183 -158 217 -227 25 -51 25 -51 44 -9 11 23 32 56 47 74 16 19 25
37 21 44 -4 8 -3 9 5 5 18 -12 63 37 55 60 -5 15 -4 16 4 4 10 -13 35 -1 62
31 5 6 134 81 270 159 78 43 132 90 170 145 47 68 59 58 -142 104 -97 23 -97
23 -125 -3 -15 -14 -53 -43 -83 -63 -30 -21 -61 -44 -68 -51 -8 -7 -30 -25
-50 -40 -55 -41 -150 -143 -163 -174 -15 -37 -19 -36 -54 23 -38 65 -122 142
-243 226 -37 25 -81 59 -97 74 -36 33 -33 33 -105 10z"/></g>
</g>
</svg>